<svg width="264" height="48" viewBox="0 0 264 48" fill="none" xmlns="http://www.w3.org/2000/svg">
<path d="M40.6562 8.0625L46 6L47.9688 0.75C48.0625 0.28125 48.5312 0 49 0C49.375 0 49.8438 0.28125 49.9375 0.75L52 6L57.25 8.0625C57.7188 8.15625 58 8.625 58 9C58 9.46875 57.7188 9.9375 57.25 10.0312L52 12L49.9375 17.3438C49.8438 17.7188 49.375 18 49 18C48.5312 18 48.0625 17.7188 47.9688 17.3438L46 12L40.6562 10.0312C40.2812 9.9375 40 9.46875 40 9C40 8.625 40.2812 8.15625 40.6562 8.0625ZM29.2188 6.9375L34.0938 17.625L44.7812 22.5C45.3438 22.7812 45.7188 23.3438 45.7188 23.9062C45.7188 24.4688 45.3438 25.0312 44.7812 25.2188L34.0938 30.1875L29.2188 40.875C28.9375 41.4375 28.375 41.8125 27.8125 41.8125C27.25 41.8125 26.6875 41.4375 26.5 40.875L21.5312 30.1875L10.8438 25.3125C10.2812 25.0312 10 24.4688 10 23.9062C10 23.3438 10.2812 22.7812 10.8438 22.5L21.5312 17.625L26.5 6.9375C26.6875 6.375 27.25 6 27.8125 6C28.375 6 28.9375 6.375 29.2188 6.9375ZM46 36L47.9688 30.75C48.0625 30.2812 48.5312 30 49 30C49.375 30 49.8438 30.2812 49.9375 30.75L52 36L57.25 38.0625C57.7188 38.1562 58 38.625 58 39C58 39.4688 57.7188 39.9375 57.25 40.0312L52 42L49.9375 47.3438C49.8438 47.7188 49.375 48 49 48C48.5312 48 48.0625 47.7188 47.9688 47.3438L46 42L40.6562 40.0312C40.2812 39.9375 40 39.4688 40 39C40 38.625 40.2812 38.1562 40.6562 38.0625L46 36Z" fill="#C4E8FF"/>
<path d="M85.864 14.58H89.368V31.5H86.584L78.16 20.724V31.5H74.68V14.58H77.44L85.864 25.308V14.58ZM103.791 19.716V31.5H100.263V29.82C99.8949 30.428 99.4069 30.892 98.7989 31.212C98.2069 31.532 97.5349 31.692 96.7829 31.692C95.2949 31.692 94.1829 31.284 93.4469 30.468C92.7269 29.636 92.3669 28.388 92.3669 26.724V19.716H95.9909V26.796C95.9909 27.5 96.1349 28.02 96.4229 28.356C96.7269 28.692 97.1829 28.86 97.7909 28.86C98.4949 28.86 99.0629 28.62 99.4949 28.14C99.9429 27.66 100.167 27.028 100.167 26.244V19.716H103.791ZM117.18 26.292H109.5C109.612 27.236 109.916 27.924 110.412 28.356C110.924 28.772 111.644 28.98 112.572 28.98C113.18 28.98 113.78 28.884 114.372 28.692C114.98 28.484 115.532 28.196 116.028 27.828L116.988 30.252C116.412 30.7 115.708 31.052 114.876 31.308C114.06 31.564 113.236 31.692 112.404 31.692C110.42 31.692 108.852 31.148 107.7 30.06C106.564 28.956 105.996 27.46 105.996 25.572C105.996 24.372 106.244 23.308 106.74 22.38C107.236 21.452 107.924 20.732 108.804 20.22C109.684 19.692 110.684 19.428 111.804 19.428C113.452 19.428 114.756 19.964 115.716 21.036C116.692 22.108 117.18 23.564 117.18 25.404V26.292ZM111.9 21.924C111.212 21.924 110.66 22.148 110.244 22.596C109.844 23.028 109.596 23.66 109.5 24.492H114.132C114.084 23.644 113.868 23.004 113.484 22.572C113.116 22.14 112.588 21.924 111.9 21.924ZM127.294 19.74H130.846L125.662 31.5H122.59L117.478 19.74H121.246L124.222 27.228L127.294 19.74ZM137.384 31.692C136.136 31.692 135.04 31.444 134.096 30.948C133.152 30.436 132.424 29.724 131.912 28.812C131.4 27.884 131.144 26.796 131.144 25.548C131.144 24.3 131.4 23.22 131.912 22.308C132.424 21.38 133.152 20.668 134.096 20.172C135.04 19.676 136.136 19.428 137.384 19.428C138.632 19.428 139.728 19.676 140.672 20.172C141.616 20.668 142.344 21.38 142.856 22.308C143.368 23.22 143.624 24.3 143.624 25.548C143.624 26.796 143.368 27.884 142.856 28.812C142.344 29.724 141.616 30.436 140.672 30.948C139.728 31.444 138.632 31.692 137.384 31.692ZM137.384 28.932C139.144 28.932 140.024 27.804 140.024 25.548C140.024 24.412 139.792 23.564 139.328 23.004C138.88 22.444 138.232 22.164 137.384 22.164C135.624 22.164 134.744 23.292 134.744 25.548C134.744 27.804 135.624 28.932 137.384 28.932ZM159.829 19.428C160.837 19.428 161.733 19.692 162.517 20.22C163.317 20.732 163.933 21.46 164.365 22.404C164.813 23.332 165.037 24.404 165.037 25.62C165.037 26.836 164.813 27.908 164.365 28.836C163.933 29.748 163.325 30.452 162.541 30.948C161.757 31.444 160.853 31.692 159.829 31.692C159.029 31.692 158.301 31.532 157.645 31.212C157.005 30.876 156.509 30.412 156.157 29.82V35.82H152.533V19.716H156.109V21.372C156.461 20.764 156.965 20.292 157.621 19.956C158.277 19.604 159.013 19.428 159.829 19.428ZM158.773 28.932C159.621 28.932 160.277 28.652 160.741 28.092C161.205 27.516 161.437 26.692 161.437 25.62C161.437 24.532 161.205 23.692 160.741 23.1C160.277 22.492 159.621 22.188 158.773 22.188C157.925 22.188 157.269 22.484 156.805 23.076C156.341 23.652 156.109 24.484 156.109 25.572C156.109 26.644 156.341 27.476 156.805 28.068C157.269 28.644 157.925 28.932 158.773 28.932ZM175.675 22.404L173.635 22.62C172.627 22.716 171.915 23.004 171.499 23.484C171.083 23.948 170.875 24.572 170.875 25.356V31.5H167.251V19.716H170.731V21.708C171.323 20.348 172.547 19.604 174.403 19.476L175.459 19.404L175.675 22.404ZM182.314 31.692C181.066 31.692 179.97 31.444 179.026 30.948C178.082 30.436 177.354 29.724 176.842 28.812C176.33 27.884 176.074 26.796 176.074 25.548C176.074 24.3 176.33 23.22 176.842 22.308C177.354 21.38 178.082 20.668 179.026 20.172C179.97 19.676 181.066 19.428 182.314 19.428C183.562 19.428 184.658 19.676 185.602 20.172C186.546 20.668 187.274 21.38 187.786 22.308C188.298 23.22 188.554 24.3 188.554 25.548C188.554 26.796 188.298 27.884 187.786 28.812C187.274 29.724 186.546 30.436 185.602 30.948C184.658 31.444 183.562 31.692 182.314 31.692ZM182.314 28.932C184.074 28.932 184.954 27.804 184.954 25.548C184.954 24.412 184.722 23.564 184.258 23.004C183.81 22.444 183.162 22.164 182.314 22.164C180.554 22.164 179.674 23.292 179.674 25.548C179.674 27.804 180.554 28.932 182.314 28.932ZM202.687 14.58V31.5H199.087V29.748C198.735 30.356 198.231 30.836 197.575 31.188C196.935 31.524 196.207 31.692 195.391 31.692C194.383 31.692 193.479 31.436 192.679 30.924C191.895 30.396 191.279 29.668 190.831 28.74C190.399 27.796 190.183 26.716 190.183 25.5C190.183 24.284 190.399 23.22 190.831 22.308C191.279 21.38 191.895 20.668 192.679 20.172C193.463 19.676 194.367 19.428 195.391 19.428C196.191 19.428 196.911 19.596 197.551 19.932C198.207 20.268 198.711 20.74 199.063 21.348V14.58H202.687ZM196.447 28.932C197.295 28.932 197.943 28.644 198.391 28.068C198.855 27.476 199.087 26.636 199.087 25.548C199.087 24.46 198.855 23.628 198.391 23.052C197.943 22.476 197.295 22.188 196.447 22.188C195.599 22.188 194.943 22.476 194.479 23.052C194.015 23.612 193.783 24.428 193.783 25.5C193.783 26.588 194.015 27.436 194.479 28.044C194.943 28.636 195.599 28.932 196.447 28.932ZM216.83 19.716V31.5H213.302V29.82C212.934 30.428 212.446 30.892 211.838 31.212C211.246 31.532 210.574 31.692 209.822 31.692C208.334 31.692 207.222 31.284 206.486 30.468C205.766 29.636 205.406 28.388 205.406 26.724V19.716H209.03V26.796C209.03 27.5 209.174 28.02 209.462 28.356C209.766 28.692 210.222 28.86 210.83 28.86C211.534 28.86 212.102 28.62 212.534 28.14C212.982 27.66 213.206 27.028 213.206 26.244V19.716H216.83ZM225.227 31.692C223.307 31.692 221.795 31.148 220.691 30.06C219.587 28.972 219.035 27.492 219.035 25.62C219.035 24.388 219.299 23.308 219.827 22.38C220.355 21.436 221.099 20.708 222.059 20.196C223.019 19.684 224.131 19.428 225.395 19.428C226.259 19.428 227.091 19.564 227.891 19.836C228.691 20.092 229.339 20.444 229.835 20.892L228.875 23.364C228.411 22.996 227.899 22.716 227.339 22.524C226.795 22.316 226.259 22.212 225.731 22.212C224.787 22.212 224.051 22.492 223.523 23.052C223.011 23.612 222.755 24.444 222.755 25.548C222.755 26.652 223.011 27.492 223.523 28.068C224.051 28.628 224.787 28.908 225.731 28.908C226.259 28.908 226.795 28.812 227.339 28.62C227.899 28.412 228.411 28.124 228.875 27.756L229.835 30.252C229.307 30.7 228.635 31.052 227.819 31.308C227.003 31.564 226.139 31.692 225.227 31.692ZM238.115 29.028C238.483 29.028 238.867 29.004 239.267 28.956L239.075 31.596C238.611 31.66 238.147 31.692 237.683 31.692C235.891 31.692 234.579 31.3 233.747 30.516C232.931 29.732 232.523 28.54 232.523 26.94V22.428H230.291V19.716H232.523V16.26H236.147V19.716H239.099V22.428H236.147V26.916C236.147 28.324 236.803 29.028 238.115 29.028ZM246.533 31.692C245.285 31.692 244.189 31.444 243.245 30.948C242.301 30.436 241.573 29.724 241.061 28.812C240.549 27.884 240.293 26.796 240.293 25.548C240.293 24.3 240.549 23.22 241.061 22.308C241.573 21.38 242.301 20.668 243.245 20.172C244.189 19.676 245.285 19.428 246.533 19.428C247.781 19.428 248.877 19.676 249.821 20.172C250.765 20.668 251.493 21.38 252.005 22.308C252.517 23.22 252.773 24.3 252.773 25.548C252.773 26.796 252.517 27.884 252.005 28.812C251.493 29.724 250.765 30.436 249.821 30.948C248.877 31.444 247.781 31.692 246.533 31.692ZM246.533 28.932C248.293 28.932 249.173 27.804 249.173 25.548C249.173 24.412 248.941 23.564 248.477 23.004C248.029 22.444 247.381 22.164 246.533 22.164C244.773 22.164 243.893 23.292 243.893 25.548C243.893 27.804 244.773 28.932 246.533 28.932Z" fill="white"/>
</svg>
