<svg width="201" height="50" viewBox="0 0 201 50" fill="none" xmlns="http://www.w3.org/2000/svg">
<g id="Logo Siigo Aspel" clip-path="url(#clip0_11322_1611)">
<path id="Vector" d="M7.57781 49.7514C6.45549 49.8282 6.23797 49.4511 5.97032 48.2155C5.65406 46.7503 5.36558 45.2789 4.84415 43.8659C4.78629 43.7287 4.74512 43.5851 4.7215 43.4382C4.66828 42.9529 4.76315 42.5497 5.54762 42.4806C6.47324 42.3984 7.40734 42.3416 8.33296 42.2402C10.0662 42.0498 11.6166 41.4431 12.8199 40.1392C13.3722 39.541 13.7617 38.8337 13.8072 38.0105C13.8466 37.2925 13.5488 36.6651 13.093 36.116C12.1272 34.951 10.8437 34.2538 9.4869 33.6379C7.96734 32.9467 6.34211 32.5121 4.86497 31.7265C3.18098 30.8476 1.83115 29.4455 1.02057 27.7333C0.553075 26.7838 0.243591 25.7651 0.104206 24.7168C-0.135683 22.8193 0.0270723 20.947 0.712802 19.1401C1.12171 18.0752 1.71137 17.0881 2.45605 16.222C3.84448 14.5794 5.64404 13.5726 7.63566 12.8485C8.65615 12.4768 9.65428 12.0414 10.7118 11.7733C11.0192 11.6867 11.3365 11.6395 11.6559 11.6328C12.0339 11.6328 12.3378 11.7757 12.4859 12.1358C13.1917 13.8537 14.098 15.4825 14.7514 17.2226C15.0167 17.9314 14.9488 18.4206 14.0139 18.7807C12.988 19.177 11.8997 19.3121 10.8514 19.607C9.7237 19.9249 8.78574 20.5193 8.10233 21.4854C7.24304 22.701 7.62872 23.9911 8.75797 24.7583C10.0824 25.6591 11.5734 26.2604 13.0004 26.9791C14.3032 27.6357 15.7132 28.085 16.9088 28.9466C18.7809 30.2958 19.934 32.145 20.5943 34.3121C21.0413 35.761 21.2011 37.2826 21.0648 38.7922C20.8381 41.3049 19.978 43.5534 18.1183 45.3335C16.8771 46.5233 15.4517 47.5065 13.8967 48.2455C12.5991 48.8627 11.2196 49.2922 9.80006 49.521C9.0642 49.6408 8.32602 49.7452 7.57781 49.7514Z" fill="white"/>
<path id="Vector_2" d="M56.9971 30.6609C56.9971 33.3571 57.0326 36.0549 56.9848 38.7503C56.9508 40.664 56.7402 42.5662 55.999 44.3631C55.2693 46.1294 54.1107 47.5185 52.4184 48.4769C51.2212 49.155 49.9315 49.5466 48.6064 49.8124C47.5211 50.0304 46.4026 50.0082 45.2896 49.989C43.6882 49.9613 42.1409 49.6411 40.6383 49.1258C39.9521 48.8891 39.3013 48.5608 38.7038 48.1498C38.457 47.9808 38.2896 47.775 38.4215 47.4003C38.8349 46.2177 39.1928 45.0197 39.5924 43.8294C39.7135 43.4639 40.0768 43.3686 40.4332 43.6067C41.1883 44.1066 41.9759 44.5282 42.8506 44.7932C44.502 45.2931 46.1751 45.4843 47.8736 45.0942C49.7079 44.6757 50.7893 43.493 51.2344 41.7022C51.2914 41.4719 51.3331 41.2415 51.3747 41.0111C51.3945 40.93 51.3888 40.8448 51.3583 40.767C51.3278 40.6893 51.274 40.6227 51.2043 40.5764C51.05 40.4781 50.8656 40.4006 50.6713 40.5227C49.5721 41.2138 48.3364 41.5671 47.0729 41.6746C45.5742 41.8074 44.0893 41.64 42.6624 41.0426C40.4308 40.1095 38.892 38.4838 37.8399 36.3789C37.3304 35.3496 37.0077 34.2387 36.8865 33.0976C36.8171 32.4709 36.7014 31.8458 36.7261 31.2161C36.8248 28.6942 37.364 26.3014 38.8928 24.2172C40.4216 22.133 42.4525 20.8951 44.9965 20.4505C46.6212 20.1541 48.2957 20.2881 49.8521 20.8391C50.3276 21.0162 50.7847 21.2392 51.2166 21.5049C51.6223 21.7445 51.9193 21.6032 52.0003 21.134C52.0535 20.8268 52.2818 20.7369 52.5541 20.7331C53.1064 20.7247 53.6587 20.7277 54.2118 20.7277C54.9831 20.7277 55.7545 20.7277 56.5258 20.7277C57.1012 20.7277 57.203 20.8591 57.1653 21.4304C57.0781 22.7405 57.004 24.0506 57.0071 25.3645C57.0102 27.1287 57.0102 28.8924 57.0071 30.6555L56.9971 30.6609ZM51.4434 31.0625V29.0383C51.4472 28.7316 51.4072 28.426 51.3246 28.1306C50.8564 26.5179 49.859 25.4021 48.1682 25.0727C46.3386 24.7164 44.7859 25.2501 43.6481 26.7667C42.7711 27.9355 42.4657 29.3009 42.4063 30.7239C42.3422 32.2713 42.5682 33.7572 43.4314 35.088C44.4611 36.6769 46.3209 37.3872 48.24 36.9418C49.9261 36.5494 51.1611 35.1203 51.3963 33.2895C51.4982 32.5001 51.4102 31.7076 51.4434 31.0625Z" fill="white"/>
<path id="Vector_3" d="M68.7593 42.1949C66.3427 42.2202 64.3627 41.6627 62.5824 40.4617C61.3526 39.6297 60.3289 38.5302 59.5888 37.2463C58.8761 36.0261 58.4989 34.6945 58.2613 33.3245C58.1116 32.4621 58.1541 31.5782 58.1764 30.7013C58.2164 28.4814 58.9221 26.324 60.2028 24.5064C61.6375 22.4545 63.6314 21.1928 66.0704 20.6237C67.1026 20.3786 68.1631 20.2722 69.2237 20.3073C72.1834 20.4141 74.7566 21.4116 76.7451 23.6547C78.0626 25.1407 78.82 26.9 79.1525 28.8536C79.3381 29.9469 79.387 31.0589 79.2983 32.1642C79.0731 35.0055 78.0965 37.5159 75.9406 39.4726C74.347 40.9194 72.451 41.7541 70.3229 42.0835C69.8047 42.1546 69.2824 42.1918 68.7593 42.1949ZM63.7795 31.3287C63.7687 32.7685 64.0649 34.193 64.9026 35.4586C65.9347 37.0175 67.3763 37.8054 69.2808 37.5612C70.9191 37.3515 72.0576 36.3886 72.7727 34.9694C74.0223 32.4936 73.9821 29.9664 72.7997 27.4844C72.0414 25.8917 70.7656 24.9456 68.9306 24.8973C67.0269 24.8473 65.6308 25.6913 64.7128 27.3301C64.0256 28.5503 63.7764 29.8827 63.7795 31.3287Z" fill="white"/>
<path id="Vector_4" d="M160.172 32.382V35.5382C160.172 36.8168 160.168 38.0946 160.172 39.3732C160.172 39.6082 160.117 39.7526 159.906 39.9038C159.063 40.5136 158.245 41.1594 157.418 41.7922C157.277 41.7108 157.341 41.5818 157.341 41.4812C157.337 32.7636 157.334 24.0458 157.331 15.3278C157.331 15.062 157.391 14.9829 157.665 14.9906C158.384 15.0114 159.105 15.016 159.825 14.9906C160.134 14.9791 160.182 15.0889 160.173 15.3592C160.154 15.969 160.167 16.581 160.167 17.2591C160.739 16.6223 161.404 16.075 162.139 15.6357C163.563 14.7656 165.123 14.4677 166.767 14.6374C168.345 14.7963 169.691 15.4522 170.735 16.6509C171.738 17.7982 172.29 19.1689 172.613 20.6334C172.909 22.0097 173.034 23.4172 172.984 24.824C172.919 26.8867 172.628 28.9155 171.688 30.7923C171.017 32.1301 170.097 33.2497 168.764 34.0038C167.537 34.7003 166.219 34.8969 164.841 34.7917C163.553 34.7093 162.323 34.23 161.322 33.4202C160.941 33.1038 160.626 32.7222 160.172 32.382ZM160.172 24.6374C160.172 26.1195 160.177 27.6024 160.167 29.0845C160.161 29.3262 160.241 29.5622 160.394 29.7503C161.305 30.9336 162.462 31.7653 163.917 32.1439C165.448 32.5425 166.908 32.4311 168.16 31.3545C168.919 30.701 169.338 29.8186 169.625 28.8817C170.146 27.1616 170.242 25.3946 170.165 23.6137C170.108 22.2806 169.901 20.9759 169.333 19.7487C168.379 17.6876 166.595 16.7538 164.345 17.1462C162.637 17.4472 161.359 18.4302 160.279 19.718C160.166 19.8524 160.177 19.9998 160.177 20.1511C160.173 21.646 160.172 23.1414 160.172 24.6374Z" fill="white"/>
<path id="Vector_5" d="M132.338 32.2016C131.667 32.8451 130.949 33.4303 130.128 33.878C128.74 34.6352 127.255 34.8763 125.694 34.7995C124.46 34.7381 123.308 34.4109 122.3 33.6922C121.406 33.0532 120.835 32.1747 120.465 31.1365C120.07 30.0299 120.019 28.8888 120.125 27.7622C120.226 26.6401 120.675 25.577 121.409 24.7197C122.539 23.3858 124.032 22.7998 125.689 22.5311C127.961 22.1671 130.163 22.3828 132.268 23.3635C132.288 23.3727 132.318 23.3635 132.363 23.355C132.389 22.0281 132.53 20.6911 132.139 19.3894C131.789 18.2237 130.723 17.3629 129.516 17.1409C127.242 16.7224 125.161 17.2577 123.172 18.309C122.9 18.4526 122.809 18.4426 122.695 18.1154C122.5 17.5572 122.217 17.0273 121.949 16.4967C121.835 16.2663 121.757 16.1396 122.079 15.9875C123.532 15.2993 125.093 14.8622 126.693 14.6951C127.609 14.5879 128.532 14.5674 129.452 14.6337C131.078 14.7657 132.614 15.1597 133.784 16.3945C134.593 17.2477 134.995 18.2967 135.141 19.4486C135.343 21.0459 135.278 22.6524 135.281 24.2558C135.287 27.5026 135.281 30.7495 135.289 33.9955C135.289 34.3027 135.217 34.424 134.884 34.4117C134.178 34.3871 133.469 34.3902 132.764 34.4117C132.481 34.4202 132.378 34.3556 132.395 34.0585C132.42 33.5608 132.405 33.0602 132.4 32.5633C132.4 32.4404 132.444 32.3053 132.338 32.1985C132.338 32.1978 132.338 32.2016 132.338 32.2016ZM132.403 27.6969C132.403 27.1594 132.389 26.6218 132.409 26.0843C132.418 25.8324 132.339 25.7003 132.107 25.5836C130.156 24.6344 128.095 24.4493 125.992 24.7941C124.561 25.0245 123.478 25.7925 123.061 27.273C122.889 27.8874 122.898 28.5079 122.955 29.1345C123.126 31.0006 124.272 32.2193 126.113 32.4281C128.473 32.6962 130.401 31.8445 131.991 30.132C132.299 29.7987 132.443 29.4493 132.408 28.9963C132.377 28.567 132.403 28.1308 132.403 27.6969Z" fill="white"/>
<path id="Vector_6" d="M179.849 25.6871C180.852 24.9476 181.793 24.2657 182.721 23.5691C182.913 23.4221 183.151 23.3466 183.394 23.3557C185.477 23.3633 187.559 23.3557 189.642 23.3656C189.933 23.3656 190.038 23.3226 190.006 22.9917C189.883 21.7361 189.62 20.5258 188.986 19.4169C188.04 17.769 186.567 17.0433 184.708 17.0525C182.911 17.0617 181.571 17.8972 180.678 19.4331C179.984 20.6287 179.712 21.9519 179.615 23.3104C179.49 25.0766 179.515 26.8282 180.107 28.5323C180.71 30.2624 181.747 31.604 183.569 32.1515C184.995 32.5808 186.415 32.3666 187.795 31.872C188.637 31.5702 189.391 31.0903 190.14 30.6118C190.311 30.502 190.376 30.4859 190.489 30.6633C190.848 31.2277 191.224 31.7814 191.592 32.3397C191.676 32.4664 191.699 32.5478 191.524 32.6607C190.01 33.6429 188.405 34.4146 186.608 34.7065C185.623 34.8755 184.618 34.8995 183.626 34.7779C182.252 34.6002 180.962 34.0211 179.919 33.1138C178.68 32.0525 177.926 30.7209 177.418 29.2081C177.13 28.3838 176.95 27.5258 176.883 26.6555C176.834 25.9159 176.714 25.1757 176.729 24.4369C176.764 22.6883 177.046 20.9705 177.748 19.3578C178.145 18.4285 178.706 17.5771 179.403 16.8436C181.011 15.1757 183.017 14.5068 185.302 14.6051C186.803 14.6704 188.192 15.095 189.404 16.0119C190.723 17.0102 191.543 18.3549 192.059 19.89C192.599 21.5026 192.734 23.1767 192.681 24.8685C192.674 25.0835 192.58 25.2862 192.604 25.5074C192.629 25.757 192.427 25.674 192.308 25.674C190.638 25.6833 188.966 25.6886 187.295 25.6902C184.84 25.6886 182.386 25.6871 179.849 25.6871Z" fill="white"/>
<path id="Vector_7" d="M35.5796 31.2815V41.0204C35.5796 41.6048 35.4168 41.7691 34.8344 41.7691C33.4337 41.7691 32.0327 41.7691 30.6314 41.7691C30.1747 41.7691 30.0266 41.6155 30.0259 41.1548C30.0259 34.6883 30.0228 28.2213 30.0166 21.7538C30.0166 20.8906 30.4378 20.7247 31.041 20.7286C32.326 20.7355 33.6111 20.7286 34.8977 20.7286C35.4315 20.7286 35.5811 20.8883 35.5811 21.4197C35.5811 24.71 35.5806 27.9973 35.5796 31.2815Z" fill="white"/>
<path id="Vector_8" d="M22.3004 31.2772V21.7334C22.3004 20.9655 22.5248 20.7351 23.3031 20.7351C24.4859 20.7289 25.6686 20.7289 26.8513 20.7351C27.5687 20.7351 27.8603 21.0422 27.8603 21.7687V40.7366C27.8603 41.4661 27.5517 41.7672 26.8081 41.7672C25.6002 41.7672 24.3918 41.7672 23.1828 41.7672C22.5742 41.7672 22.3058 41.5015 22.305 40.8963C22.2988 37.69 22.2973 34.4836 22.3004 31.2772Z" fill="white"/>
<path id="Vector_9" d="M128.159 45.0087C127.075 45.0801 125.886 44.9695 124.721 44.7529C123.599 44.5371 122.496 44.2352 121.422 43.8499C119.493 43.1781 117.689 42.197 116.078 40.9455C114.23 39.5062 112.675 37.7273 111.499 35.7052C110.834 34.5753 110.289 33.3793 109.874 32.1366C109.489 30.9912 109.22 29.8108 109.07 28.6126C108.983 27.8984 108.977 27.1811 108.901 26.4716C108.824 25.7751 108.906 25.0893 108.944 24.4066C109.005 23.2955 109.198 22.1954 109.517 21.1291C109.739 20.3934 109.998 19.67 110.228 18.9366C110.26 18.836 110.35 18.8153 110.395 18.7393C110.45 18.6464 110.556 18.5811 110.652 18.6494C110.729 18.7016 110.68 18.8084 110.66 18.8975C110.499 19.5802 110.259 20.2406 110.12 20.931C109.919 21.9089 109.795 22.901 109.751 23.8982C109.613 27.2771 110.373 30.4464 112.004 33.4052C113.503 36.1608 115.759 38.4344 118.509 39.9603C120.103 40.8495 121.828 41.4824 123.621 41.8356C125.14 42.1313 126.692 42.224 128.236 42.1113C130.684 41.9587 133.067 41.2704 135.216 40.0954C136.123 39.6109 136.978 39.0356 137.767 38.3783C138.359 37.88 138.906 37.3355 139.489 36.8325C140.2 36.2182 141.554 36.3863 142.144 37.0798C142.833 37.8899 142.803 39.0879 142.036 39.7883C139.698 41.945 136.867 43.5003 133.788 44.3191C131.975 44.8036 130.144 45.0686 128.159 45.0087Z" fill="white"/>
<path id="Vector_10" d="M145.495 34.8046C143.034 34.8092 140.867 33.9652 138.914 32.5223C138.75 32.4009 138.733 32.2919 138.878 32.1137C139.348 31.5493 139.8 30.9703 140.249 30.3905C140.392 30.2062 140.492 30.2868 140.626 30.3959C141.594 31.1868 142.652 31.815 143.879 32.126C145.251 32.4739 146.619 32.5238 147.955 31.9886C148.929 31.5985 149.54 30.7276 149.582 29.6433C149.611 28.8884 149.405 28.248 148.902 27.7396C148.497 27.328 147.985 27.0231 147.472 26.7344C145.954 25.8804 144.293 25.3306 142.766 24.5074C141.552 23.8554 140.418 23.0982 139.866 21.7428C139.676 21.2744 139.622 20.7814 139.531 20.2891C139.399 19.5252 139.473 18.74 139.745 18.0138C140.274 16.5194 141.369 15.541 142.872 15.0311C144.238 14.5704 145.634 14.5166 147.066 14.6855C148.599 14.8606 150.068 15.3954 151.352 16.246C151.938 16.6299 151.932 16.6346 151.491 17.1959C151.131 17.6567 150.773 18.1174 150.416 18.5782C150.323 18.698 150.276 18.761 150.1 18.6358C149.705 18.3482 149.29 18.0898 148.857 17.8625C147.226 17.0385 145.534 16.706 143.76 17.3126C142.147 17.8648 141.713 19.7954 142.893 21.0148C143.404 21.5447 144.037 21.8933 144.683 22.2213C146.119 22.9485 147.626 23.5329 149.04 24.3039C150.173 24.9182 151.258 25.6155 151.841 26.8304C152.754 28.7341 152.551 31.5915 150.702 33.1681C149.786 33.9506 148.709 34.3884 147.546 34.6356C146.872 34.7798 146.183 34.8366 145.495 34.8046Z" fill="white"/>
<path id="Vector_11" d="M16.8965 16.8305C15.7333 14.9759 15.0591 12.8979 14.0518 10.9719C15.0375 11.5671 15.7564 12.441 16.6435 13.1728C16.8255 12.1999 16.9945 11.24 17.3377 10.3315C17.9085 8.81099 18.6629 7.39954 19.7073 6.12861C21.3557 4.12124 23.4167 2.70824 25.7763 1.66846C27.3292 0.984767 28.9588 0.488984 30.6304 0.191733C31.5843 0.0133673 32.5577 -0.0382782 33.5252 0.0381465C34.2866 0.103421 35.054 0.114943 35.8169 0.204791C37.3826 0.384072 38.9171 0.771488 40.3794 1.35669C42.1366 2.06549 43.7124 3.06073 45.0392 4.41075C46.5309 5.92895 47.6401 7.68367 48.2109 9.7471C48.2611 9.93064 48.3398 9.96443 48.5079 9.93755C49.456 9.78578 50.4157 9.71819 51.3758 9.73558C55.2256 9.81237 58.7267 10.9412 61.8183 13.2504C62.6252 13.8564 63.3686 14.5418 64.0375 15.2962C64.1748 15.4498 64.2859 15.4874 64.4872 15.4129C65.0665 15.1994 65.6835 15.1449 66.2914 15.1003C67.6792 14.9988 69.0739 15.0416 70.4528 15.2278C72.2361 15.4674 73.9393 15.9458 75.5252 16.7898C78.2506 18.2402 80.0792 20.4359 81.011 23.3771C81.1688 23.8318 81.2873 24.2992 81.3651 24.774C80.9022 23.1867 80.1795 21.7168 79.1112 20.4628C78.0722 19.2262 76.7768 18.2281 75.3138 17.537C73.9786 16.9134 72.6018 16.422 71.1246 16.2177C70.4628 16.1263 69.801 16.0641 69.1407 15.9873C68.3054 15.889 67.4854 15.9535 66.6647 16.015C65.7576 16.0818 64.8559 16.2369 64.0082 16.594C63.8076 16.6784 63.7143 16.6485 63.5708 16.4734C62.982 15.7605 62.3372 15.0955 61.6424 14.4845C60.9951 13.9149 60.3025 13.3984 59.5714 12.9402C58.4882 12.2531 57.3181 11.7126 56.0918 11.3329C54.9061 10.9732 53.6872 10.7324 52.4534 10.6141C51.4232 10.502 50.3848 10.4868 49.3518 10.5688C48.4968 10.6302 47.6466 10.7456 46.8063 10.9144C46.5849 10.962 46.5032 10.889 46.4662 10.6909C46.1576 9.03906 45.4634 7.55082 44.4846 6.19388C43.1532 4.34394 41.4231 2.98931 39.3127 2.09544C38.2126 1.61938 37.0527 1.29414 35.8647 1.12861C34.8458 0.99269 33.8145 0.905146 32.7793 0.975028C30.6967 1.12017 28.6503 1.47265 26.7181 2.30048C24.6219 3.18926 22.764 4.5545 21.2932 6.2868C19.2105 8.72575 17.9941 11.5679 17.2914 14.6572C17.1225 15.3744 16.9907 16.0998 16.8965 16.8305Z" fill="white"/>
<path id="Vector_12" d="M200.665 20.6204C200.665 25.0682 200.667 29.5161 200.672 33.9639C200.672 34.2972 200.613 34.4324 200.238 34.4139C199.544 34.3801 198.85 34.3878 198.155 34.4139C197.847 34.4247 197.775 34.3325 197.776 34.03C197.785 29.4669 197.787 24.9041 197.782 20.3416C197.782 16.6601 197.78 12.9792 197.774 9.29874C197.774 9.02382 197.899 8.86947 198.106 8.7251C198.908 8.16988 199.613 7.49027 200.438 6.9627C200.655 6.82371 200.669 6.89742 200.664 7.08403C200.664 7.17311 200.664 7.26296 200.664 7.35204L200.665 20.6204Z" fill="white"/>
<path id="Vector_13" d="M126.683 6.03431C130.809 6.06887 134.581 7.22922 137.955 9.59905C139.645 10.7729 141.108 12.2406 142.274 13.9317C142.357 14.0531 142.473 14.1967 142.352 14.2896C142.23 14.3825 142.043 14.3418 141.918 14.1844C141.326 13.4402 140.614 12.8228 139.875 12.2269C138.746 11.3225 137.513 10.5546 136.203 9.93925C134.868 9.31511 133.461 8.85605 132.013 8.57233C131.315 8.43521 130.607 8.35025 129.896 8.31815C129.297 8.2882 128.701 8.24135 128.102 8.26285C126.121 8.3311 124.167 8.73574 122.323 9.45929C119.854 10.4131 117.749 11.899 115.986 13.858C115.566 14.3241 115.19 14.8256 114.53 14.9623C113.507 15.1735 112.632 14.8217 112.237 13.7628C111.92 12.918 112.159 12.2515 112.763 11.6272C114.298 10.0498 116.102 8.86261 118.086 7.94109C119.878 7.10098 121.789 6.53602 123.751 6.26546C124.724 6.12493 125.697 6.02126 126.683 6.03431Z" fill="white"/>
<path id="Vector_14" d="M94.5071 24.9088C94.5071 18.2867 94.5051 11.6651 94.501 5.04401C94.501 4.78061 94.5827 4.57326 94.8141 4.51874C95.0455 4.46422 95.3248 4.44196 95.5084 4.7092C95.5971 4.84051 95.5855 4.97413 95.5855 5.11159C95.5855 6.24966 95.5855 7.38748 95.5855 8.52504C95.5855 20.6174 95.5855 32.71 95.5855 44.8029C95.5855 45.3496 95.3425 45.6023 94.9028 45.517C94.6977 45.4771 94.555 45.3696 94.5287 45.1553C94.5116 45.0024 94.5041 44.8485 94.5064 44.6946C94.5069 38.0996 94.5071 31.5044 94.5071 24.9088Z" fill="white"/>
<path id="Vector_15" d="M32.6868 19.2281C30.7584 19.2611 29.3569 17.7306 29.488 15.767C29.6029 14.0576 30.7908 12.7767 32.8657 12.7951C34.5141 12.8089 36.2303 13.9962 36.0337 16.366C35.9087 17.8742 34.5712 19.2903 32.6868 19.2281Z" fill="white"/>
<path id="Vector_16" d="M21.7603 15.9744C21.7603 14.0123 23.1487 12.7767 25.0971 12.7951C26.9738 12.8136 28.3792 14.1859 28.3191 16.1011C28.2643 17.8366 26.9052 19.2104 25.0023 19.2342C23.0523 19.2565 21.7078 17.7575 21.7603 15.9744Z" fill="white"/>
</g>
<defs>
<clipPath id="clip0_11322_1611">
<rect width="201" height="50" fill="white"/>
</clipPath>
</defs>
</svg>
