<?xml version="1.0" encoding="UTF-8"?>
<svg xmlns="http://www.w3.org/2000/svg" xmlns:xlink="http://www.w3.org/1999/xlink" width="108px" height="51px" viewBox="0 0 108 51" version="1.1">
<g id="surface1">
<path style=" stroke:none;fill-rule:nonzero;fill:rgb(0%,67.450982%,100%);fill-opacity:1;" d="M 17 34.398438 L 19.199219 34.398438 C 19.5 34.398438 19.699219 34.199219 19.699219 33.898438 L 19.699219 22.898438 C 19.699219 22.601562 19.5 22.398438 19.199219 22.398438 L 17 22.398438 C 16.699219 22.398438 16.5 22.601562 16.5 22.898438 L 16.5 33.898438 C 16.5 34.199219 16.699219 34.398438 17 34.398438 "/>
<path style=" stroke:none;fill-rule:nonzero;fill:rgb(0%,67.450982%,100%);fill-opacity:1;" d="M 18.101562 18 C 17 18 16.199219 18.800781 16.199219 19.800781 C 16.199219 20.800781 17 21.601562 18 21.601562 C 19.101562 21.601562 19.898438 20.800781 19.898438 19.800781 C 19.898438 18.800781 19.101562 18 18.101562 18 "/>
<path style=" stroke:none;fill-rule:nonzero;fill:rgb(0%,67.450982%,100%);fill-opacity:1;" d="M 22.5 18 C 21.398438 18 20.601562 18.800781 20.601562 19.800781 C 20.601562 20.800781 21.398438 21.601562 22.398438 21.601562 C 23.5 21.601562 24.300781 20.800781 24.300781 19.800781 C 24.300781 18.800781 23.5 18 22.5 18 "/>
<path style=" stroke:none;fill-rule:nonzero;fill:rgb(0%,67.450982%,100%);fill-opacity:1;" d="M 21.199219 34.398438 L 23.699219 34.398438 C 23.898438 34.398438 24 34.300781 24 34.101562 L 24 22.699219 C 24 22.5 23.898438 22.398438 23.699219 22.398438 L 21.300781 22.398438 C 21 22.398438 20.800781 22.601562 20.800781 22.898438 L 20.800781 34.101562 C 20.800781 34.300781 20.898438 34.398438 21.101562 34.398438 "/>
<path style=" stroke:none;fill-rule:nonzero;fill:rgb(0%,67.450982%,100%);fill-opacity:1;" d="M 33.398438 22.699219 C 33.398438 22.898438 33.199219 23 33 22.898438 C 32.398438 22.5 31.5 22.199219 30.398438 22.199219 C 27.601562 22.199219 24.800781 24.398438 24.800781 28.5 C 24.800781 32.601562 27.101562 34.398438 30.101562 34.398438 C 33.101562 34.398438 31.898438 34.199219 32.699219 33.699219 C 32.898438 33.601562 33.101562 33.699219 33.101562 34 C 32.898438 35.699219 31.898438 36.5 30.101562 36.5 C 28.300781 36.5 27.5 36 27.101562 35.699219 L 26.800781 35.5 C 26.699219 35.5 26.5 35.5 26.398438 35.601562 L 25.699219 37.699219 C 25.699219 37.800781 25.699219 37.898438 25.800781 38 L 26 38 C 26.898438 38.699219 28.5 39.101562 30 39.101562 C 31.5 39.101562 33 38.898438 34.398438 37.699219 C 35.601562 36.601562 36.199219 34.898438 36.199219 32.300781 L 36.199219 26 C 36.199219 24.601562 36.199219 23.800781 36.199219 23.101562 L 36.199219 22.800781 C 36.199219 22.601562 36.199219 22.5 36 22.5 L 33.601562 22.5 C 33.5 22.5 33.300781 22.601562 33.300781 22.800781 M 30.601562 31.800781 C 28.601562 31.800781 27.898438 30 27.898438 28.5 C 27.898438 27 29 24.898438 30.699219 24.898438 C 32.398438 24.898438 32.699219 25.5 33 26.601562 C 33 26.800781 33 27 33 27.300781 L 33 29.199219 C 33 29.5 33 29.800781 32.898438 30.101562 C 32.601562 31.101562 31.699219 31.800781 30.601562 31.800781 "/>
<path style=" stroke:none;fill-rule:nonzero;fill:rgb(0%,67.450982%,100%);fill-opacity:1;" d="M 42.898438 22.199219 C 39.300781 22.199219 36.800781 24.800781 36.800781 28.5 C 36.800781 32.199219 37.398438 31.800781 38.5 33 C 39.601562 34.101562 41.101562 34.699219 42.699219 34.699219 C 45.601562 34.699219 48.800781 32.699219 48.800781 28.398438 C 48.800781 24.101562 46.398438 22.300781 42.898438 22.300781 M 42.800781 32.101562 C 41.199219 32.101562 40 30.601562 40 28.5 C 40 26.398438 40.898438 24.800781 42.800781 24.800781 C 44.699219 24.800781 45.601562 27.101562 45.601562 28.398438 C 45.601562 30.5 44.398438 32.101562 42.800781 32.101562 "/>
<path style=" stroke:none;fill-rule:nonzero;fill:rgb(0%,67.450982%,100%);fill-opacity:1;" d="M 12.601562 26.601562 C 11.5 26.101562 10.300781 25.5 9.300781 25 C 8 24.300781 8 23.199219 9.101562 22.300781 C 9.800781 21.800781 10.5 21.699219 11.300781 21.5 C 12.398438 21.199219 12.601562 21 12.101562 20 C 12 19.699219 11.800781 19.398438 11.699219 19 C 11.601562 18.699219 11.398438 18.398438 11.300781 18.101562 C 11.199219 17.898438 11.101562 17.5 10.898438 17.300781 C 10.699219 17.101562 10.300781 17.300781 10 17.300781 C 9.398438 17.5 8.800781 17.699219 8.199219 18 C 5.699219 18.898438 4.199219 20.699219 4 23.300781 C 3.800781 25.398438 4.601562 27.898438 7.300781 29 C 8.5 29.5 9.800781 29.800781 10.800781 30.699219 C 11.898438 31.601562 12.101562 32.601562 11.101562 33.601562 C 10.101562 34.699219 8.699219 34.800781 7.398438 34.898438 C 6.699219 34.898438 6.398438 34.898438 6.699219 35.898438 C 7 36.699219 7.199219 37.601562 7.300781 38.5 C 7.398438 39.101562 7.699219 39.199219 8.199219 39.101562 C 10.5 39 12.398438 38.199219 14.101562 36.601562 C 16.800781 34 16.199219 28.398438 12.5 26.800781 "/>
<path style=" stroke:none;fill-rule:nonzero;fill:rgb(0%,67.450982%,100%);fill-opacity:1;" d="M 12.601562 26.601562 C 11.5 26.101562 10.300781 25.5 9.300781 25 C 8 24.300781 8 23.199219 9.101562 22.300781 C 9.800781 21.800781 10.5 21.699219 11.300781 21.5 C 12.398438 21.199219 12.601562 21 12.101562 20 C 12 19.699219 11.800781 19.398438 11.699219 19 C 11.601562 18.699219 11.398438 18.398438 11.300781 18.101562 C 11.199219 17.898438 11.101562 17.5 10.898438 17.300781 C 10.699219 17.101562 10.300781 17.300781 10 17.300781 C 9.398438 17.5 8.800781 17.699219 8.199219 18 C 5.699219 18.898438 4.199219 20.699219 4 23.300781 C 3.800781 25.398438 4.601562 27.898438 7.300781 29 C 8.5 29.5 9.800781 29.800781 10.800781 30.699219 C 11.898438 31.601562 12.101562 32.601562 11.101562 33.601562 C 10.101562 34.699219 8.699219 34.800781 7.398438 34.898438 C 6.699219 34.898438 6.398438 34.898438 6.699219 35.898438 C 7 36.699219 7.199219 37.601562 7.300781 38.5 C 7.398438 39.101562 7.699219 39.199219 8.199219 39.101562 C 10.5 39 12.398438 38.199219 14.101562 36.601562 C 16.800781 34 16.199219 28.398438 12.5 26.800781 "/>
<path style=" stroke:none;fill-rule:nonzero;fill:rgb(0%,67.450982%,100%);fill-opacity:1;" d="M 46.601562 20.898438 C 46.199219 20.398438 45.601562 20 45 19.800781 C 43.398438 19 41.5 19 39.800781 19.601562 C 37.800781 15.699219 33.300781 14.199219 29.699219 16.800781 C 28.199219 14.199219 26.101562 12.101562 23 11.398438 C 18.800781 10.300781 14.5 13.101562 12.699219 16.898438 C 12.5 17.300781 12.699219 17.898438 13.101562 18.101562 C 13.5 18.300781 14 18.101562 14.199219 17.699219 C 14.5 17 14.898438 16.300781 15.398438 15.699219 C 16.800781 13.898438 19.101562 12.601562 21.398438 12.699219 C 24.300781 12.898438 26.601562 14.601562 28.101562 17 C 28.398438 17.5 28.800781 18.199219 29.199219 18.699219 C 29.699219 18.300781 30.300781 17.800781 30.898438 17.398438 C 32.101562 16.699219 33.5 16.601562 34.800781 17 C 36.601562 17.5 38 19 38.699219 20.699219 L 39 21.300781 L 39.5 21 C 40.5 20.398438 41.601562 20.101562 42.800781 20.101562 C 44 20.101562 45.101562 20.5 46 21.300781 C 46 21.300781 46.199219 21.300781 46.300781 21.300781 C 46.300781 21.300781 46.300781 21.101562 46.300781 21 "/>
<path style=" stroke:none;fill-rule:nonzero;fill:rgb(0%,14.901961%,32.156864%);fill-opacity:1;" d="M 51.601562 23.101562 L 60 23.101562 L 60 24.800781 L 51.601562 24.800781 Z M 55.101562 18.800781 C 55.800781 18.101562 56.699219 17.699219 57.898438 17.699219 C 59.101562 17.699219 58.699219 17.699219 59.101562 17.800781 C 59.5 17.800781 59.800781 18 60.101562 18.199219 L 60.101562 19.898438 C 59.601562 19.601562 59 19.398438 58.398438 19.398438 C 57.800781 19.398438 57.101562 19.601562 56.699219 20 C 56.300781 20.398438 56.199219 21.101562 56.199219 22 L 56.199219 34.398438 L 54 34.398438 L 54 22 C 54 20.5 54.300781 19.398438 55 18.699219 Z M 55.101562 18.800781 "/>
<path style=" stroke:none;fill-rule:nonzero;fill:rgb(0%,14.901961%,32.156864%);fill-opacity:1;" d="M 62.699219 20.800781 C 62.5 20.699219 62.398438 20.5 62.300781 20.398438 C 62.300781 20.199219 62.199219 20 62.199219 19.699219 C 62.199219 19.398438 62.199219 19.199219 62.300781 19 C 62.300781 18.800781 62.5 18.699219 62.699219 18.601562 C 62.898438 18.5 63.199219 18.398438 63.601562 18.398438 C 64 18.398438 64.300781 18.398438 64.5 18.601562 C 64.699219 18.699219 64.800781 18.898438 64.898438 19 C 64.898438 19.199219 65 19.398438 65 19.699219 C 65 20 65 20.199219 64.898438 20.398438 C 64.898438 20.601562 64.699219 20.699219 64.5 20.800781 C 64.300781 20.898438 64 21 63.601562 21 C 63.199219 21 62.898438 21 62.699219 20.800781 Z M 62.5 23.101562 L 64.699219 23.101562 L 64.699219 34.398438 L 62.5 34.398438 Z M 62.5 23.101562 "/>
<path style=" stroke:none;fill-rule:nonzero;fill:rgb(0%,14.901961%,32.156864%);fill-opacity:1;" d="M 68.5 34.398438 C 67.800781 34.199219 67.199219 34 66.699219 33.800781 L 66.699219 32.101562 C 67.300781 32.398438 67.898438 32.601562 68.601562 32.699219 C 69.300781 32.800781 70 32.898438 70.699219 32.898438 C 71.398438 32.898438 72.398438 32.800781 72.898438 32.5 C 73.398438 32.300781 73.601562 31.898438 73.601562 31.300781 C 73.601562 30.699219 73.5 30.699219 73.199219 30.5 C 73 30.300781 72.601562 30.101562 72.300781 29.898438 C 71.898438 29.699219 71.398438 29.601562 70.800781 29.398438 C 70 29.101562 69.300781 28.898438 68.800781 28.699219 C 68.300781 28.5 67.898438 28.101562 67.5 27.699219 C 67.101562 27.300781 67 26.699219 67 26 C 67 24.898438 67.398438 24.199219 68.300781 23.699219 C 69.199219 23.199219 70.199219 23 71.5 23 C 72.800781 23 72.898438 23 73.5 23.199219 C 74.101562 23.300781 74.699219 23.5 75.101562 23.601562 L 75.101562 25.300781 C 74.398438 25.101562 73.800781 24.898438 73.300781 24.800781 C 72.699219 24.800781 72.101562 24.699219 71.5 24.699219 C 70.898438 24.699219 70.101562 24.699219 69.699219 25 C 69.300781 25.199219 69.101562 25.5 69.101562 26 C 69.101562 26.5 69.101562 26.5 69.398438 26.699219 C 69.601562 26.898438 69.800781 27.101562 70.199219 27.199219 C 70.5 27.300781 71 27.5 71.601562 27.699219 C 71.800781 27.699219 71.898438 27.699219 72.101562 27.898438 C 72.898438 28.199219 73.601562 28.398438 74.101562 28.601562 C 74.601562 28.800781 75 29.199219 75.398438 29.601562 C 75.699219 30 75.898438 30.601562 75.898438 31.300781 C 75.898438 32.5 75.398438 33.300781 74.5 33.898438 C 73.601562 34.5 72.398438 34.699219 71 34.699219 C 69.601562 34.699219 69.5 34.699219 68.699219 34.5 Z M 68.5 34.398438 "/>
<path style=" stroke:none;fill-rule:nonzero;fill:rgb(0%,14.901961%,32.156864%);fill-opacity:1;" d="M 79.898438 33.898438 C 78.898438 33.398438 78.199219 32.699219 77.699219 31.800781 C 77.199219 30.898438 76.898438 29.898438 76.898438 28.699219 C 76.898438 27.5 77.199219 26.5 77.699219 25.601562 C 78.199219 24.699219 78.898438 24 79.898438 23.5 C 80.800781 23 81.898438 22.800781 83.199219 22.800781 C 84.5 22.800781 84.5 22.800781 85.199219 23 C 85.800781 23.101562 86.5 23.398438 87 23.601562 L 87 25.398438 C 86.300781 25.101562 85.699219 24.898438 85.199219 24.699219 C 84.601562 24.601562 84.101562 24.5 83.5 24.5 C 82.601562 24.5 81.800781 24.699219 81.199219 25 C 80.5 25.398438 80.101562 25.800781 79.699219 26.398438 C 79.398438 27 79.199219 27.699219 79.199219 28.5 C 79.199219 29.300781 79.398438 30 79.699219 30.601562 C 80 31.199219 80.5 31.699219 81.199219 32.101562 C 81.898438 32.5 82.699219 32.601562 83.601562 32.601562 C 84.5 32.601562 84.800781 32.601562 85.398438 32.398438 C 86 32.199219 86.601562 32 87.101562 31.699219 L 87.101562 33.5 C 86.5 33.898438 85.898438 34.101562 85.300781 34.199219 C 84.699219 34.300781 84.101562 34.398438 83.398438 34.398438 C 82.101562 34.398438 80.898438 34.199219 80 33.699219 Z M 79.898438 33.898438 "/>
<path style=" stroke:none;fill-rule:nonzero;fill:rgb(0%,14.901961%,32.156864%);fill-opacity:1;" d="M 90.898438 34.199219 C 90.300781 33.898438 89.699219 33.5 89.398438 32.898438 C 89 32.300781 88.800781 31.699219 88.800781 30.898438 C 88.800781 29.699219 89.300781 28.800781 90.199219 28.101562 C 91.101562 27.398438 92.398438 27.101562 94 27.101562 C 95.601562 27.101562 95.199219 27.101562 95.699219 27.199219 C 96.300781 27.199219 96.800781 27.398438 97.398438 27.601562 L 97.398438 29.300781 C 96.898438 29.101562 96.398438 29 95.800781 28.898438 C 95.300781 28.898438 94.699219 28.800781 94.199219 28.800781 C 93.101562 28.800781 92.300781 29 91.699219 29.398438 C 91.199219 29.800781 90.898438 30.300781 90.898438 30.898438 C 90.898438 31.5 91.101562 32.101562 91.601562 32.398438 C 92.101562 32.800781 92.699219 33 93.5 33 C 94.300781 33 95.398438 32.699219 96 32 C 96.601562 31.300781 96.898438 30.5 96.898438 29.398438 L 96.898438 28.300781 C 96.898438 27 96.601562 26 96 25.398438 C 95.398438 24.800781 94.5 24.5 93.199219 24.5 C 91.898438 24.5 92 24.5 91.5 24.699219 C 90.898438 24.800781 90.300781 25.101562 89.699219 25.398438 L 89.699219 23.699219 C 90.300781 23.398438 90.898438 23.199219 91.601562 23 C 92.300781 22.898438 92.898438 22.800781 93.601562 22.800781 C 95.398438 22.800781 96.800781 23.300781 97.699219 24.199219 C 98.601562 25.101562 99.101562 26.5 99.101562 28.300781 L 99.101562 34.398438 L 96.898438 34.398438 L 96.898438 31.601562 L 97.199219 31.601562 C 96.898438 32.601562 96.300781 33.398438 95.601562 33.800781 C 94.800781 34.300781 94 34.5 92.898438 34.5 C 91.800781 34.5 91.398438 34.398438 90.699219 34.101562 Z M 90.898438 34.199219 "/>
<path style=" stroke:none;fill-rule:nonzero;fill:rgb(0%,14.901961%,32.156864%);fill-opacity:1;" d="M 101.898438 17.898438 L 104.101562 17.898438 L 104.101562 34.398438 L 101.898438 34.398438 Z M 101.898438 17.898438 "/>
</g>
</svg>
